<?xml version="1.0" standalone="no"?>
<!DOCTYPE svg PUBLIC "-//W3C//DTD SVG 1.1//EN" "http://www.w3.org/Graphics/SVG/1.1/DTD/svg11.dtd" >
<svg xmlns="http://www.w3.org/2000/svg">
<metadata></metadata>
<defs>
<font id="pxplus_ibm_ega8regular" horiz-adv-x="1024" >
<font-face units-per-em="2048" ascent="1638" descent="-410" />
<missing-glyph horiz-adv-x="500" />
<glyph />
<glyph />
<glyph unicode="&#xd;" d="M0 0v256h128v128h128v768h768v-384h-512v-640h-128v-128h-384zM512 896h256v128h-256v-128z" />
<glyph d="M0 128v896h128v-896h-128zM128 0v128h768v-128h-768zM128 1024v128h768v-128h-768zM256 384v128h512v-128h-128v-128h-256v128h-128zM256 768v128h128v-128h-128zM640 768v128h128v-128h-128zM896 128v896h128v-896h-128z" />
<glyph d="M0 128v896h128v128h768v-128h128v-896h-128v-128h-768v128h-128zM256 384h128v-128h256v128h128v128h-512v-128zM256 768h128v128h-128v-128zM640 768h128v128h-128v-128z" />
<glyph d="M0 384v512h128v128h256v-128h128v128h256v-128h128v-512h-128v-128h-128v-128h-128v-128h-128v128h-128v128h-128v128h-128z" />
<glyph d="M0 512v128h128v128h128v128h128v128h128v-128h128v-128h128v-128h128v-128h-128v-128h-128v-128h-128v-128h-128v128h-128v128h-128v128h-128z" />
<glyph d="M0 384v384h256v256h128v128h256v-128h128v-256h256v-384h-384v384h-256v-384h-384zM256 0v128h128v256h256v-256h128v-128h-512z" />
<glyph d="M0 512v256h128v128h128v128h128v128h256v-128h128v-128h128v-128h128v-256h-128v-128h-256v-256h128v-128h-512v128h128v256h-256v128h-128z" />
<glyph d="M256 384v256h128v128h256v-128h128v-256h-128v-128h-256v128h-128z" />
<glyph d="M0 -384v1792h1024v-1792h-1024zM256 384h128v-128h256v128h128v256h-128v128h-256v-128h-128v-256z" />
<glyph unicode="&#x9;" d="M128 256v512h128v128h512v-128h128v-512h-128v-128h-512v128h-128zM256 384h128v-128h256v128h128v256h-128v128h-256v-128h-128v-256z" />
<glyph unicode="&#xa;" d="M0 -384v1792h1024v-1792h-1024zM128 256h128v-128h512v128h128v512h-128v128h-512v-128h-128v-512zM256 384v256h128v128h256v-128h128v-256h-128v-128h-256v128h-128z" />
<glyph d="M0 128v384h128v128h128v128h128v128h128v128h-128v128h512v-512h-128v256h-128v-128h-128v-128h128v-128h128v-384h-128v-128h-512v128h-128zM256 128h256v384h-256v-384z" />
<glyph d="M128 256v128h256v128h-128v128h-128v384h128v128h512v-128h128v-384h-128v-128h-128v-128h256v-128h-256v-256h-256v256h-256zM384 640h256v384h-256v-384z" />
<glyph d="M0 -128v384h128v896h896v-1024h-128v-128h-256v384h128v384h-384v-768h-128v-128h-256zM384 896h384v128h-384v-128z" />
<glyph d="M0 256v128h256v-128h-256zM0 512v128h256v128h128v384h256v-384h128v-128h256v-128h-256v-128h-128v-384h-256v384h-128v128h-256zM0 768v128h256v-128h-256zM384 512h256v128h-256v-128zM768 256v128h256v-128h-256zM768 768v128h256v-128h-256z" />
<glyph d="M0 0v1152h128v-128h128v-128h128v-128h256v-128h256v-128h-256v-128h-256v-128h-128v-128h-128v-128h-128z" />
<glyph d="M0 512v128h256v128h256v128h128v128h128v128h128v-1152h-128v128h-128v128h-128v128h-256v128h-256z" />
<glyph d="M128 256v128h256v384h-256v128h128v128h128v128h256v-128h128v-128h128v-128h-256v-384h256v-128h-128v-128h-128v-128h-256v128h-128v128h-128z" />
<glyph d="M128 0v256h256v-256h-256zM128 384v768h256v-768h-256zM640 0v256h256v-256h-256zM640 384v768h256v-768h-256z" />
<glyph d="M0 640v384h128v128h896v-1152h-256v1024h-128v-1024h-256v512h-256v128h-128zM256 640h128v384h-128v-384z" />
<glyph d="M0 0h256v-128h384v128h-128v128h-256v128h-128v128h-128v256h128v128h128v128h-128v128h-128v128h128v128h640v-128h128v-128h-256v128h-384v-128h128v-128h256v-128h128v-128h128v-256h-128v-128h-128v-128h128v-128h128v-128h-128v-128h-640v128h-128v128zM256 384h128 v-128h128v128h128v256h-128v128h-128v-128h-128v-256z" />
<glyph d="M0 0v384h896v-384h-896z" />
<glyph d="M128 0h256v128h-128v128h-128v128h256v384h-256v128h128v128h128v128h256v-128h128v-128h128v-128h-256v-384h256v-128h-128v-128h-128v-128h256v-128h-768v128z" />
<glyph d="M128 768v128h128v128h128v128h256v-128h128v-128h128v-128h-256v-768h-256v768h-256z" />
<glyph d="M128 256v128h256v768h256v-768h256v-128h-128v-128h-128v-128h-256v128h-128v128h-128z" />
<glyph d="M0 512v128h512v128h-128v128h256v-128h128v-128h128v-128h-128v-128h-128v-128h-256v128h128v128h-512z" />
<glyph d="M0 512v128h128v128h128v128h256v-128h-128v-128h512v-128h-512v-128h128v-128h-256v128h-128v128h-128z" />
<glyph d="M0 256v512h256v-384h640v-128h-896z" />
<glyph d="M0 512v128h128v128h128v128h128v-256h128v256h128v-128h128v-128h128v-128h-128v-128h-128v-128h-128v256h-128v-256h-128v128h-128v128h-128z" />
<glyph d="M0 128v256h128v256h128v256h128v128h128v-128h128v-256h128v-256h128v-256h-896z" />
<glyph d="M0 768v256h896v-256h-128v-256h-128v-256h-128v-128h-128v128h-128v256h-128v256h-128z" />
<glyph unicode=" " />
<glyph unicode="!" d="M256 640v384h128v128h256v-128h128v-384h-128v-256h-256v256h-128zM384 0v256h256v-256h-256z" />
<glyph unicode="&#x22;" d="M128 896v384h256v-512h-128v128h-128zM640 768v512h256v-384h-128v-128h-128z" />
<glyph unicode="#" d="M0 256v128h128v384h-128v128h128v256h256v-256h128v256h256v-256h128v-128h-128v-384h128v-128h-128v-256h-256v256h-128v-256h-256v256h-128zM384 384h128v384h-128v-384z" />
<glyph unicode="$" d="M0 128v256h128v-128h128v-128h384v384h-512v128h-128v384h128v128h256v256h256v-256h128v-128h128v-256h-128v128h-128v128h-384v-384h512v-128h128v-384h-128v-128h-128v-256h-256v256h-256v128h-128z" />
<glyph unicode="%" d="M0 0v128h128v128h128v128h128v128h128v128h128v128h128v128h128v-256h-128v-128h-128v-128h-128v-128h-128v-128h-128v-128h-256zM0 640v256h256v-256h-256zM640 0v256h256v-256h-256z" />
<glyph unicode="&#x26;" d="M0 128v384h128v128h128v128h-128v256h128v128h384v-128h128v-256h-128v-128h-128v-128h128v128h256v-128h-128v-384h128v-128h-256v128h-128v256h-128v128h-128v-384h256v-128h-384v128h-128zM384 768h128v256h-128v-256z" />
<glyph unicode="'" d="M128 768v128h128v384h256v-384h-128v-128h-256z" />
<glyph unicode="(" d="M256 256v640h128v128h128v128h256v-128h-128v-128h-128v-640h128v-128h128v-128h-256v128h-128v128h-128z" />
<glyph unicode=")" d="M256 0v128h128v128h128v640h-128v128h-128v128h256v-128h128v-128h128v-640h-128v-128h-128v-128h-256z" />
<glyph unicode="*" d="M0 512v128h256v128h-128v128h256v-128h256v128h256v-128h-128v-128h256v-128h-256v-128h128v-128h-256v128h-256v-128h-256v128h128v128h-256z" />
<glyph unicode="+" d="M128 512v128h256v256h256v-256h256v-128h-256v-256h-256v256h-256z" />
<glyph unicode="," d="M256 0h128v384h256v-384h-128v-128h-256v128z" />
<glyph unicode="-" d="M0 512v128h896v-128h-896z" />
<glyph unicode="." d="M384 0v256h256v-256h-256z" />
<glyph unicode="/" d="M0 128v256h128v128h128v128h128v128h128v128h128v128h128v128h128v-256h-128v-128h-128v-128h-128v-128h-128v-128h-128v-128h-128v-128h-128z" />
<glyph unicode="0" d="M0 128v896h128v128h640v-128h128v-896h-128v-128h-640v128h-128zM256 128h384v512h-128v-128h-128v-128h-128v-256zM256 640h128v128h128v128h128v128h-384v-384z" />
<glyph unicode="1" d="M128 0v128h256v640h-256v128h128v128h128v128h256v-1024h256v-128h-768z" />
<glyph unicode="2" d="M0 0v256h128v128h128v128h128v128h128v128h128v256h-384v-128h-256v128h128v128h640v-128h128v-256h-128v-128h-128v-128h-128v-128h-128v-128h-128v-128h384v128h256v-256h-896z" />
<glyph unicode="3" d="M0 128v128h256v-128h384v384h-384v128h384v384h-384v-128h-256v128h128v128h640v-128h128v-384h-128v-128h128v-384h-128v-128h-640v128h-128z" />
<glyph unicode="4" d="M0 384v256h128v128h128v128h128v128h128v128h256v-640h128v-128h-128v-256h128v-128h-512v128h128v256h-512zM256 512h256v256h-128v-128h-128v-128z" />
<glyph unicode="5" d="M0 128v128h256v-128h384v384h-640v640h896v-128h-640v-384h512v-128h128v-384h-128v-128h-640v128h-128z" />
<glyph unicode="6" d="M0 128v768h128v128h128v128h384v-128h-256v-128h-128v-256h512v-128h128v-384h-128v-128h-640v128h-128zM256 128h384v384h-384v-384z" />
<glyph unicode="7" d="M0 896v256h896v-384h-128v-128h-128v-128h-128v-512h-256v512h128v128h128v128h128v256h-384v-128h-256z" />
<glyph unicode="8" d="M0 128v384h128v128h-128v384h128v128h640v-128h128v-384h-128v-128h128v-384h-128v-128h-640v128h-128zM256 128h384v384h-384v-384zM256 640h384v384h-384v-384z" />
<glyph unicode="9" d="M0 640v384h128v128h640v-128h128v-768h-128v-128h-128v-128h-512v128h384v128h128v256h-512v128h-128zM256 640h384v384h-384v-384z" />
<glyph unicode=":" d="M384 128v256h256v-256h-256zM384 768v256h256v-256h-256z" />
<glyph unicode=";" d="M256 0v128h128v256h256v-256h-128v-128h-256zM384 768v256h256v-256h-256z" />
<glyph unicode="&#x3c;" d="M128 512v128h128v128h128v128h128v128h128v128h256v-128h-128v-128h-128v-128h-128v-128h-128v-128h128v-128h128v-128h128v-128h128v-128h-256v128h-128v128h-128v128h-128v128h-128z" />
<glyph unicode="=" d="M128 256v128h768v-128h-768zM128 640v128h768v-128h-768z" />
<glyph unicode="&#x3e;" d="M128 0v128h128v128h128v128h128v128h128v128h-128v128h-128v128h-128v128h-128v128h256v-128h128v-128h128v-128h128v-128h128v-128h-128v-128h-128v-128h-128v-128h-128v-128h-256z" />
<glyph unicode="?" d="M0 768v256h128v128h640v-128h128v-256h-128v-128h-128v-256h-256v256h128v128h128v256h-384v-256h-256zM384 0v256h256v-256h-256z" />
<glyph unicode="@" d="M0 128v896h128v128h640v-128h128v-640h-128v-128h-384v512h256v256h-384v-896h512v-128h-640v128h-128z" />
<glyph unicode="A" d="M0 0v768h128v128h128v128h128v128h128v-128h128v-128h128v-128h128v-768h-256v384h-384v-384h-256zM256 512h384v256h-128v128h-128v-128h-128v-256z" />
<glyph unicode="B" d="M0 0v128h128v896h-128v128h768v-128h128v-384h-128v-128h128v-384h-128v-128h-768zM384 128h256v384h-256v-384zM384 640h256v384h-256v-384z" />
<glyph unicode="C" d="M0 256v640h128v128h128v128h512v-128h128v-256h-128v128h-128v128h-256v-128h-128v-640h128v-128h256v128h128v128h128v-256h-128v-128h-512v128h-128v128h-128z" />
<glyph unicode="D" d="M0 0v128h128v896h-128v128h640v-128h128v-128h128v-640h-128v-128h-128v-128h-640zM384 128h128v128h128v640h-128v128h-128v-896z" />
<glyph unicode="E" d="M0 0v128h128v896h-128v128h896v-384h-128v128h-128v128h-256v-384h128v128h128v-384h-128v128h-128v-384h256v128h128v128h128v-384h-896z" />
<glyph unicode="F" d="M0 0v128h128v896h-128v128h896v-384h-128v128h-128v128h-256v-384h128v128h128v-384h-128v128h-128v-384h128v-128h-512z" />
<glyph unicode="G" d="M0 256v640h128v128h128v128h512v-128h128v-256h-128v128h-128v128h-256v-128h-128v-640h128v-128h256v-128h-384v128h-128v128h-128zM384 384v128h512v-512h-128v128h-128v256h-256z" />
<glyph unicode="H" d="M0 0v1152h256v-512h384v512h256v-1152h-256v512h-384v-512h-256z" />
<glyph unicode="I" d="M256 0v128h128v896h-128v128h512v-128h-128v-896h128v-128h-512z" />
<glyph unicode="J" d="M0 128v256h256v-256h256v896h-128v128h512v-128h-128v-896h-128v-128h-512v128h-128z" />
<glyph unicode="K" d="M0 0v128h128v896h-128v128h384v-512h128v256h128v256h256v-256h-128v-256h-128v-128h128v-256h128v-256h-256v256h-128v256h-128v-512h-384z" />
<glyph unicode="L" d="M0 0v128h128v896h-128v128h512v-128h-128v-896h256v128h128v128h128v-384h-896z" />
<glyph unicode="M" d="M0 0v1152h256v-128h128v-128h128v128h128v128h256v-1152h-256v640h-128v-128h-128v128h-128v-640h-256z" />
<glyph unicode="N" d="M0 0v1152h256v-128h128v-128h128v-128h128v384h256v-1152h-256v384h-128v128h-128v128h-128v-640h-256z" />
<glyph unicode="O" d="M0 256v640h128v128h128v128h384v-128h128v-128h128v-640h-128v-128h-128v-128h-384v128h-128v128h-128zM256 256h128v-128h128v128h128v640h-128v128h-128v-128h-128v-640z" />
<glyph unicode="P" d="M0 0v128h128v896h-128v128h768v-128h128v-384h-128v-128h-384v-384h128v-128h-512zM384 640h256v384h-256v-384z" />
<glyph unicode="Q" d="M0 256v768h128v128h640v-128h128v-768h-128v-256h128v-128h-384v256h-384v128h-128zM256 256h128v256h128v-128h128v640h-384v-768z" />
<glyph unicode="R" d="M0 0v128h128v896h-128v128h768v-128h128v-384h-128v-256h128v-384h-256v384h-128v128h-128v-512h-384zM384 640h256v384h-256v-384z" />
<glyph unicode="S" d="M0 128v256h256v-256h384v256h-128v128h-256v128h-128v128h-128v256h128v128h640v-128h128v-256h-256v256h-384v-256h128v-128h256v-128h128v-128h128v-256h-128v-128h-640v128h-128z" />
<glyph unicode="T" d="M128 768v384h768v-384h-128v128h-128v-768h128v-128h-512v128h128v768h-128v-128h-128z" />
<glyph unicode="U" d="M0 128v1024h256v-1024h384v1024h256v-1024h-128v-128h-640v128h-128z" />
<glyph unicode="V" d="M0 384v768h256v-768h128v-128h128v128h128v768h256v-768h-128v-128h-128v-128h-128v-128h-128v128h-128v128h-128v128h-128z" />
<glyph unicode="W" d="M0 256v896h256v-768h128v256h128v-256h128v768h256v-896h-128v-256h-256v128h-128v-128h-256v256h-128z" />
<glyph unicode="X" d="M0 0v256h128v128h128v384h-128v128h-128v256h256v-256h128v-128h128v128h128v256h256v-256h-128v-128h-128v-384h128v-128h128v-256h-256v256h-128v128h-128v-128h-128v-256h-256z" />
<glyph unicode="Y" d="M128 640v512h256v-512h256v512h256v-512h-128v-128h-128v-384h128v-128h-512v128h128v384h-128v128h-128z" />
<glyph unicode="Z" d="M0 0v384h128v128h128v128h128v128h128v128h128v128h-384v-128h-128v-128h-128v384h896v-256h-128v-128h-128v-128h-128v-128h-128v-128h-128v-256h384v128h128v128h128v-384h-896z" />
<glyph unicode="[" d="M256 0v1152h512v-128h-256v-896h256v-128h-512z" />
<glyph unicode="\" d="M0 768v384h128v-128h128v-128h128v-128h128v-128h128v-128h128v-128h128v-384h-128v128h-128v128h-128v128h-128v128h-128v128h-128v128h-128z" />
<glyph unicode="]" d="M256 0v128h256v896h-256v128h512v-1152h-512z" />
<glyph unicode="^" d="M0 896v128h128v128h128v128h128v128h128v-128h128v-128h128v-128h128v-128h-256v128h-128v128h-128v-128h-128v-128h-256z" />
<glyph unicode="_" d="M0 -128h1024v-128h-1024v128z" />
<glyph unicode="`" d="M256 1152v256h256v-256h128v-128h-256v128h-128z" />
<glyph unicode="a" d="M0 128v256h128v128h384v128h-384v128h512v-128h128v-512h128v-128h-256v128h-128v256h-256v-256h256v-128h-384v128h-128z" />
<glyph unicode="b" d="M0 1024v128h384v-384h256v-128h128v-128h128v-384h-128v-128h-640v1024h-128zM384 128h256v384h-128v128h-128v-512z" />
<glyph unicode="c" d="M0 128v512h128v128h640v-128h128v-128h-256v128h-384v-512h384v128h256v-128h-128v-128h-640v128h-128z" />
<glyph unicode="d" d="M0 128v384h128v128h128v128h256v256h-128v128h384v-1024h128v-128h-256v128h-128v512h-128v-128h-128v-384h256v-128h-384v128h-128z" />
<glyph unicode="e" d="M0 128v512h128v128h640v-128h128v-256h-640v-256h384v128h256v-128h-128v-128h-640v128h-128zM256 512h384v128h-384v-128z" />
<glyph unicode="f" d="M0 0v128h128v384h-128v128h128v384h128v128h384v-128h128v-256h-128v128h-128v128h-128v-384h128v-128h-128v-384h128v-128h-512z" />
<glyph unicode="g" d="M0 0h256v-128h256v256h-384v128h-128v384h128v128h384v-128h-256v-384h256v384h128v128h256v-128h-128v-768h-128v-128h-512v128h-128v128z" />
<glyph unicode="h" d="M0 0v128h128v896h-128v128h384v-512h128v-128h-128v-512h-384zM512 640v128h256v-128h128v-640h-256v640h-128z" />
<glyph unicode="i" d="M256 0v128h128v512h-128v128h384v-640h128v-128h-512zM384 896v256h256v-256h-256z" />
<glyph unicode="j" d="M128 128h256v-256h256v768h-128v128h384v-896h-128v-128h-512v128h-128v256zM640 896v256h256v-256h-256z" />
<glyph unicode="k" d="M0 0v128h128v896h-128v128h384v-640h128v128h128v128h256v-128h-128v-128h-128v-128h128v-128h128v-256h-256v256h-128v128h-128v-384h-384z" />
<glyph unicode="l" d="M256 0v128h128v896h-128v128h384v-1024h128v-128h-512z" />
<glyph unicode="m" d="M0 0v768h384v-128h128v128h256v-128h128v-640h-256v512h-128v-384h-128v384h-128v-512h-256z" />
<glyph unicode="n" d="M0 640v128h256v-128h128v-640h-256v640h-128zM384 640v128h384v-128h128v-640h-256v640h-256z" />
<glyph unicode="o" d="M0 128v512h128v128h640v-128h128v-512h-128v-128h-640v128h-128zM256 128h384v512h-384v-512z" />
<glyph unicode="p" d="M0 -128h128v768h-128v128h256v-128h128v-384h256v384h-256v128h384v-128h128v-384h-128v-128h-384v-256h128v-128h-512v128z" />
<glyph unicode="q" d="M0 256v384h128v128h384v-128h-256v-384h256v384h128v128h256v-128h-128v-768h128v-128h-512v128h128v256h-384v128h-128z" />
<glyph unicode="r" d="M0 0v128h128v512h-128v128h256v-128h128v128h384v-128h128v-256h-256v256h-128v-128h-128v-384h128v-128h-512z" />
<glyph unicode="s" d="M0 128v128h256v-128h384v128h-256v128h-256v128h-128v128h128v128h640v-128h128v-128h-256v128h-384v-128h256v-128h256v-128h128v-128h-128v-128h-640v128h-128z" />
<glyph unicode="t" d="M0 640v128h256v256h128v128h128v-384h256v-128h-256v-512h128v128h256v-128h-128v-128h-384v128h-128v512h-256z" />
<glyph unicode="u" d="M0 128v640h256v-640h256v-128h-384v128h-128zM512 128v640h256v-640h128v-128h-256v128h-128z" />
<glyph unicode="v" d="M128 256v512h256v-512h256v512h256v-512h-128v-128h-128v-128h-256v128h-128v128h-128z" />
<glyph unicode="w" d="M0 128v640h256v-512h128v256h128v-256h128v512h256v-640h-128v-128h-256v128h-128v-128h-256v128h-128z" />
<glyph unicode="x" d="M0 0v128h128v128h128v256h-128v128h-128v128h256v-128h128v-128h128v128h128v128h256v-128h-128v-128h-128v-256h128v-128h128v-128h-256v128h-128v128h-128v-128h-128v-128h-256z" />
<glyph unicode="y" d="M0 -128h512v128h128v128h-512v128h-128v512h256v-512h384v512h256v-768h-128v-128h-128v-128h-640v128z" />
<glyph unicode="z" d="M0 0v128h128v128h128v128h128v128h128v128h-256v-128h-256v256h896v-128h-128v-128h-128v-128h-128v-128h-128v-128h256v128h256v-256h-896z" />
<glyph unicode="{" d="M128 512v128h256v384h128v128h384v-128h-256v-384h-128v-128h128v-384h256v-128h-384v128h-128v384h-256z" />
<glyph unicode="|" d="M384 0v512h256v-512h-256zM384 640v512h256v-512h-256z" />
<glyph unicode="}" d="M128 0v128h256v384h128v128h-128v384h-256v128h384v-128h128v-384h256v-128h-256v-384h-128v-128h-384z" />
<glyph unicode="~" d="M0 896v128h128v128h384v-128h128v128h256v-128h-128v-128h-384v128h-128v-128h-256z" />
<glyph d="M0 128v384h128v128h128v128h128v128h128v-128h128v-128h128v-128h128v-384h-896zM256 256h384v256h-128v128h-128v-128h-128v-256z" />
<glyph unicode="&#xa0;" />
<glyph unicode="&#xa1;" d="M256 128v384h128v256h256v-256h128v-384h-128v-128h-256v128h-128zM384 896v256h256v-256h-256z" />
<glyph unicode="&#xa2;" d="M128 384v512h128v128h128v256h256v-256h128v-128h128v-128h-256v128h-256v-512h256v128h256v-128h-128v-128h-128v-256h-256v256h-128v128h-128z" />
<glyph unicode="&#xa3;" d="M0 0v256h128v384h-128v128h128v384h128v128h384v-128h128v-256h-128v128h-128v128h-128v-384h128v-128h-128v-512h256v128h256v-128h-128v-128h-768z" />
<glyph unicode="&#xa4;" d="M0 0v128h128v128h-128v384h128v128h-128v128h256v-128h384v128h256v-128h-128v-128h128v-384h-128v-128h128v-128h-256v128h-384v-128h-256zM256 256h384v384h-384v-384z" />
<glyph unicode="&#xa5;" d="M128 256v128h256v128h-256v128h256v128h-128v128h-128v256h256v-256h256v256h256v-256h-128v-128h-128v-128h256v-128h-256v-128h256v-128h-256v-256h-256v256h-256z" />
<glyph unicode="&#xa6;" d="M384 0v512h256v-512h-256zM384 640v512h256v-512h-256z" />
<glyph unicode="&#xa7;" d="M0 0h256v-128h384v128h-128v128h-256v128h-128v128h-128v256h128v128h128v128h-128v128h-128v128h128v128h640v-128h128v-128h-256v128h-384v-128h128v-128h256v-128h128v-128h128v-256h-128v-128h-128v-128h128v-128h128v-128h-128v-128h-640v128h-128v128zM256 384h128 v-128h128v128h128v256h-128v128h-128v-128h-128v-256z" />
<glyph unicode="&#xa8;" d="M0 1152v256h256v-256h-256zM640 1152v256h256v-256h-256z" />
<glyph unicode="&#xa9;" d="M0 256v640h128v-640h-128zM128 128v128h128v-128h-128zM128 896v128h128v-128h-128zM256 0v128h384v-128h-384zM256 384v384h128v-384h-128zM256 1024v128h384v-128h-384zM384 256v128h256v-128h-256zM384 768v128h256v-128h-256zM640 128v128h128v-128h-128zM640 896 v128h128v-128h-128zM768 256v640h128v-640h-128z" />
<glyph unicode="&#xaa;" d="M128 512v128h768v-128h-768zM128 896v256h128v128h512v-384h128v-128h-640v128h-128zM384 896h128v256h-128v-256z" />
<glyph unicode="&#xab;" d="M0 512v128h128v128h128v128h256v-128h-128v-128h-128v-128h128v-128h128v-128h-256v128h-128v128h-128zM384 512v128h128v128h128v128h256v-128h-128v-128h-128v-128h128v-128h128v-128h-256v128h-128v128h-128z" />
<glyph unicode="&#xac;" d="M0 512v128h896v-512h-256v384h-640z" />
<glyph unicode="&#xad;" d="M0 512v128h896v-128h-896z" />
<glyph unicode="&#xae;" d="M0 256v640h128v-640h-128zM128 128v128h128v-128h-128zM128 896v128h128v-128h-128zM256 0v128h384v-128h-384zM256 256v640h384v-256h-128v-128h-128v-256h-128zM256 1024v128h384v-128h-384zM384 640h128v128h-128v-128zM512 256v256h128v-256h-128zM640 128v128h128 v-128h-128zM640 896v128h128v-128h-128zM768 256v640h128v-640h-128z" />
<glyph unicode="&#xaf;" d="M0 1280v128h1024v-128h-1024z" />
<glyph unicode="&#xb0;" d="M128 896v256h128v128h384v-128h128v-256h-128v-128h-384v128h-128zM384 896h128v256h-128v-256z" />
<glyph unicode="&#xb1;" d="M0 0v128h1024v-128h-1024zM128 640v128h256v256h256v-256h256v-128h-256v-256h-256v256h-256z" />
<glyph unicode="&#xb2;" d="M0 512v256h128v128h128v128h128v128h-128v-128h-256v128h128v128h384v-128h128v-128h-128v-128h-128v-128h-128v-128h256v128h128v-256h-640z" />
<glyph unicode="&#xb3;" d="M0 512v128h384v256h-256v128h256v128h-384v128h512v-128h128v-128h-128v-128h128v-256h-128v-128h-512z" />
<glyph unicode="&#xb4;" d="M256 1024v128h128v128h128v128h256v-128h-128v-128h-128v-128h-256z" />
<glyph unicode="&#xb5;" d="M0 0h128v896h256v-512h256v512h256v-512h-128v-128h-384v-256h-128v-128h-256v128z" />
<glyph unicode="&#xb6;" d="M0 640v384h128v128h896v-1152h-256v1024h-128v-1024h-256v512h-256v128h-128zM256 640h128v384h-128v-384z" />
<glyph unicode="&#xb7;" d="M384 384v128h256v-128h-256z" />
<glyph unicode="&#xb8;" d="M128 -128h384v128h-128v128h256v-128h128v-128h-128v-128h-512v128z" />
<glyph unicode="&#xb9;" d="M128 512v128h128v384h-128v128h128v128h256v-640h128v-128h-512z" />
<glyph unicode="&#xba;" d="M128 512v128h640v-128h-640zM128 896v256h128v128h384v-128h128v-256h-128v-128h-384v128h-128zM384 896h128v256h-128v-256z" />
<glyph unicode="&#xbb;" d="M0 256v128h128v128h128v128h-128v128h-128v128h256v-128h128v-128h128v-128h-128v-128h-128v-128h-256zM384 256v128h128v128h128v128h-128v128h-128v128h256v-128h128v-128h128v-128h-128v-128h-128v-128h-256z" />
<glyph unicode="&#xbc;" d="M0 128v256h128v128h128v128h128v128h128v128h128v128h256v-128h-128v-128h-128v-128h-128v-128h-128v-128h-128v-128h-128v-128h-128zM0 640v640h256v-640h-256zM256 0v128h128v128h128v128h128v128h256v-768h-256v256h-384z" />
<glyph unicode="&#xbd;" d="M0 128v256h128v128h128v128h128v128h128v128h128v128h256v-128h-128v-128h-128v-128h-128v-128h-128v-128h-128v-128h-128v-128h-128zM0 640v640h256v-640h-256zM256 -128h128v128h128v128h128v128h-256v128h384v-128h128v-128h-128v-128h-128v-128h256v-128h-640v128z " />
<glyph unicode="&#xbe;" d="M0 128v128h128v128h128v128h128v128h128v128h128v128h128v128h128v-256h-128v-128h-128v-128h-128v-128h-128v-128h-128v-128h-256zM0 640v128h256v128h-128v128h128v128h-256v128h384v-128h128v-128h-128v-128h128v-128h-128v-128h-384zM256 0v128h128v128h128v128h128 v128h256v-768h-256v256h-384z" />
<glyph unicode="&#xbf;" d="M0 128v256h128v128h128v256h256v-256h-128v-128h-128v-256h384v256h256v-256h-128v-128h-640v128h-128zM256 896v256h256v-256h-256z" />
<glyph unicode="&#xc0;" d="M0 0v640h128v128h128v128h128v128h128v-128h128v-128h128v-128h128v-640h-256v256h-384v-256h-256zM256 384h384v256h-128v128h-128v-128h-128v-256zM384 1280v128h256v-128h128v-128h128v-128h-256v128h-128v128h-128z" />
<glyph unicode="&#xc1;" d="M0 0v640h128v128h128v128h128v128h128v-128h128v-128h128v-128h128v-640h-256v256h-384v-256h-256zM0 1024v128h128v128h128v128h256v-128h-128v-128h-128v-128h-256zM256 384h384v256h-128v128h-128v-128h-128v-256z" />
<glyph unicode="&#xc2;" d="M0 0v640h128v128h128v128h128v128h128v-128h128v-128h128v-128h128v-640h-256v256h-384v-256h-256zM0 1024v128h128v128h128v128h384v-128h128v-128h128v-128h-256v128h-128v128h-128v-128h-128v-128h-256zM256 384h384v256h-128v128h-128v-128h-128v-256z" />
<glyph unicode="&#xc3;" d="M0 0v640h128v128h128v128h128v128h128v-128h128v-128h128v-128h128v-640h-256v256h-384v-256h-256zM0 1152v128h128v128h384v-128h128v128h256v-128h-128v-128h-384v128h-128v-128h-256zM256 384h384v256h-128v128h-128v-128h-128v-256z" />
<glyph unicode="&#xc4;" d="M0 0v640h128v128h128v128h128v128h128v-128h128v-128h128v-128h128v-640h-256v256h-384v-256h-256zM0 1024v256h256v-256h-256zM256 384h384v256h-128v128h-128v-128h-128v-256zM640 1024v256h256v-256h-256z" />
<glyph unicode="&#xc5;" d="M0 0v640h128v128h128v128h384v-128h128v-128h128v-640h-256v256h-384v-256h-256zM128 1152v128h128v128h384v-128h128v-128h-128v-128h-384v128h-128zM256 384h384v256h-128v128h-128v-128h-128v-256zM384 1152h128v128h-128v-128z" />
<glyph unicode="&#xc6;" d="M0 0v896h128v128h128v128h640v-128h-128v-384h128v-128h-128v-384h128v-128h-384v512h-256v-512h-256zM256 640h256v384h-128v-128h-128v-256z" />
<glyph unicode="&#xc7;" d="M0 384v512h128v128h128v128h512v-128h128v-256h-128v128h-128v128h-256v-128h-128v-512h128v-128h256v128h128v128h128v-256h-128v-256h128v-128h-128v-128h-640v128h512v128h-128v128h-256v128h-128v128h-128z" />
<glyph unicode="&#xc8;" d="M0 0v128h128v768h-128v128h896v-256h-256v128h-256v-256h384v-128h-384v-384h256v128h256v-256h-896zM256 1280v128h256v-128h128v-128h-256v128h-128z" />
<glyph unicode="&#xc9;" d="M0 0v128h128v640h-128v128h896v-256h-256v128h-256v-256h384v-128h-384v-256h256v128h256v-256h-896zM128 1024v128h128v128h128v128h256v-128h-128v-128h-128v-128h-256z" />
<glyph unicode="&#xca;" d="M0 0v128h128v768h-128v128h896v-256h-256v128h-256v-256h384v-128h-384v-384h256v128h256v-256h-896zM128 1152v128h128v128h384v-128h128v-128h-256v128h-128v-128h-256z" />
<glyph unicode="&#xcb;" d="M0 0v128h128v768h-128v128h896v-256h-256v128h-256v-256h384v-128h-384v-384h256v128h256v-256h-896zM0 1152v256h256v-256h-256zM640 1152v256h256v-256h-256z" />
<glyph unicode="&#xcc;" d="M256 0v128h128v768h-128v128h512v-128h-128v-768h128v-128h-512zM256 1280v128h256v-128h128v-128h-256v128h-128z" />
<glyph unicode="&#xcd;" d="M256 0v128h128v768h-128v128h512v-128h-128v-768h128v-128h-512zM384 1152v128h128v128h256v-128h-128v-128h-256z" />
<glyph unicode="&#xce;" d="M128 1152v128h128v128h512v-128h128v-128h-256v128h-256v-128h-256zM256 0v128h128v768h-128v128h512v-128h-128v-768h128v-128h-512z" />
<glyph unicode="&#xcf;" d="M128 1152v256h256v-256h-256zM256 0v128h128v768h-128v128h512v-128h-128v-768h128v-128h-512zM640 1152v256h256v-256h-256z" />
<glyph unicode="&#xd0;" d="M0 0v128h128v384h-128v128h128v384h-128v128h640v-128h128v-128h128v-640h-128v-128h-128v-128h-640zM384 128h128v128h128v640h-128v128h-128v-384h128v-128h-128v-384z" />
<glyph unicode="&#xd1;" d="M0 0v1024h256v-128h128v-128h128v-128h128v384h256v-1024h-256v256h-128v128h-128v128h-128v-512h-256zM0 1152v128h128v128h384v-128h128v128h256v-128h-128v-128h-384v128h-128v-128h-256z" />
<glyph unicode="&#xd2;" d="M0 256v512h128v128h128v128h384v-128h128v-128h128v-512h-128v-128h-128v-128h-384v128h-128v128h-128zM256 256h128v-128h128v128h128v512h-128v128h-128v-128h-128v-512zM256 1280v128h256v-128h128v-128h-256v128h-128z" />
<glyph unicode="&#xd3;" d="M0 256v512h128v128h128v128h384v-128h128v-128h128v-512h-128v-128h-128v-128h-384v128h-128v128h-128zM256 256h128v-128h128v128h128v512h-128v128h-128v-128h-128v-512zM256 1152v128h128v128h256v-128h-128v-128h-256z" />
<glyph unicode="&#xd4;" d="M0 256v512h128v128h128v128h384v-128h128v-128h128v-512h-128v-128h-128v-128h-384v128h-128v128h-128zM128 1152v128h128v128h384v-128h128v-128h-256v128h-128v-128h-256zM256 256h128v-128h128v128h128v512h-128v128h-128v-128h-128v-512z" />
<glyph unicode="&#xd5;" d="M0 256v512h128v128h128v128h384v-128h128v-128h128v-512h-128v-128h-128v-128h-384v128h-128v128h-128zM0 1152v128h128v128h384v-128h128v128h256v-128h-128v-128h-384v128h-128v-128h-256zM256 256h128v-128h128v128h128v512h-128v128h-128v-128h-128v-512z" />
<glyph unicode="&#xd6;" d="M0 256v512h128v128h128v128h384v-128h128v-128h128v-512h-128v-128h-128v-128h-384v128h-128v128h-128zM0 1024v256h256v-256h-256zM256 256h128v-128h128v128h128v512h-128v128h-128v-128h-128v-512zM640 1024v256h256v-256h-256z" />
<glyph unicode="&#xd7;" d="M0 128v128h128v128h128v256h-128v128h-128v128h256v-128h128v-128h128v128h128v128h256v-128h-128v-128h-128v-256h128v-128h128v-128h-256v128h-128v128h-128v-128h-128v-128h-256z" />
<glyph unicode="&#xd8;" d="M0 0h128v256h-128v640h128v128h128v128h384v128h256v-128h-128v-256h128v-640h-128v-128h-128v-128h-384v-128h-256v128zM256 384h128v-256h128v128h128v512h-128v256h-128v-128h-128v-512zM384 384v384h128v-384h-128z" />
<glyph unicode="&#xd9;" d="M0 128v768h256v-768h384v768h256v-768h-128v-128h-640v128h-128zM128 1280v128h256v-128h128v-128h128v-128h-256v128h-128v128h-128z" />
<glyph unicode="&#xda;" d="M0 128v768h256v-768h384v768h256v-768h-128v-128h-640v128h-128zM256 1024v128h128v128h128v128h256v-128h-128v-128h-128v-128h-256z" />
<glyph unicode="&#xdb;" d="M0 128v768h256v-768h384v768h256v-768h-128v-128h-640v128h-128zM128 1024v128h128v128h384v-128h128v-128h-256v128h-128v-128h-256z" />
<glyph unicode="&#xdc;" d="M0 128v768h256v-768h384v768h256v-768h-128v-128h-640v128h-128zM0 1024v256h256v-256h-256zM640 1024v256h256v-256h-256z" />
<glyph unicode="&#xdd;" d="M128 640v384h256v-384h256v384h256v-384h-128v-128h-128v-384h128v-128h-512v128h128v384h-128v128h-128zM384 1152v128h128v128h256v-128h-128v-128h-256z" />
<glyph unicode="&#xde;" d="M0 0v128h128v896h-128v128h512v-128h-128v-128h384v-128h128v-384h-128v-128h-384v-128h128v-128h-512zM384 384h256v384h-256v-384z" />
<glyph unicode="&#xdf;" d="M0 0v1024h128v128h512v-128h128v-384h-128v-128h128v-128h128v-256h-128v-128h-256v128h128v256h-128v128h-128v128h128v384h-256v-1024h-256z" />
<glyph unicode="&#xe0;" d="M0 128v256h128v128h384v128h-384v128h512v-128h128v-512h128v-128h-256v128h-128v256h-256v-256h256v-128h-384v128h-128zM128 1152v128h256v-128h128v-128h128v-128h-256v128h-128v128h-128z" />
<glyph unicode="&#xe1;" d="M0 128v256h128v128h384v128h-384v128h512v-128h128v-512h128v-128h-256v128h-128v256h-256v-256h256v-128h-384v128h-128zM128 896v128h128v128h128v128h256v-128h-128v-128h-128v-128h-256z" />
<glyph unicode="&#xe2;" d="M0 128v256h128v128h384v128h-384v128h512v-128h128v-512h128v-128h-256v128h-128v256h-256v-256h256v-128h-384v128h-128zM128 896v128h128v128h128v128h128v-128h128v-128h128v-128h-256v128h-128v-128h-256z" />
<glyph unicode="&#xe3;" d="M0 128v256h128v128h384v128h-384v128h512v-128h128v-512h128v-128h-256v128h-128v256h-256v-256h256v-128h-384v128h-128zM0 896v128h128v128h384v-128h128v128h256v-128h-128v-128h-384v128h-128v-128h-256z" />
<glyph unicode="&#xe4;" d="M0 128v256h128v128h384v128h-384v128h512v-128h128v-512h128v-128h-256v128h-128v256h-256v-256h256v-128h-384v128h-128zM0 896v256h256v-256h-256zM512 896v256h256v-256h-256z" />
<glyph unicode="&#xe5;" d="M0 128v256h128v128h384v128h-384v128h512v-128h128v-512h128v-128h-256v128h-128v256h-256v-256h256v-128h-384v128h-128zM128 1024v128h128v128h384v-128h128v-128h-128v-128h-384v128h-128zM384 1024h128v128h-128v-128z" />
<glyph unicode="&#xe6;" d="M0 128v256h128v128h128v128h-128v128h-128v128h256v-128h256v-256h128v256h-128v128h256v-128h128v-384h-256v-256h256v-128h-384v128h-128v256h-128v-256h128v-128h-256v128h-128z" />
<glyph unicode="&#xe7;" d="M128 384v384h128v128h512v-128h128v-128h-256v128h-256v-384h256v128h256v-128h-128v-256h128v-128h-128v-128h-512v128h384v128h-128v128h-256v128h-128z" />
<glyph unicode="&#xe8;" d="M0 128v512h128v128h640v-128h128v-256h-640v-256h384v128h256v-128h-128v-128h-640v128h-128zM128 1152v128h256v-128h128v-128h128v-128h-256v128h-128v128h-128zM256 512h384v128h-384v-128z" />
<glyph unicode="&#xe9;" d="M0 128v512h128v128h640v-128h128v-256h-640v-256h384v128h256v-128h-128v-128h-640v128h-128zM256 512h384v128h-384v-128zM256 896v128h128v128h128v128h256v-128h-128v-128h-128v-128h-256z" />
<glyph unicode="&#xea;" d="M0 128v512h128v128h640v-128h128v-256h-640v-256h384v128h256v-128h-128v-128h-640v128h-128zM128 896v128h128v128h128v128h128v-128h128v-128h128v-128h-256v128h-128v-128h-256zM256 512h384v128h-384v-128z" />
<glyph unicode="&#xeb;" d="M0 128v512h128v128h640v-128h128v-256h-640v-256h384v128h256v-128h-128v-128h-640v128h-128zM0 896v256h256v-256h-256zM256 512h384v128h-384v-128zM512 896v256h256v-256h-256z" />
<glyph unicode="&#xec;" d="M128 1152v128h256v-128h128v-128h128v-128h-256v128h-128v128h-128zM256 0v128h128v512h-128v128h384v-640h128v-128h-512z" />
<glyph unicode="&#xed;" d="M256 0v128h128v512h-128v128h384v-640h128v-128h-512zM256 896v128h128v128h128v128h256v-128h-128v-128h-128v-128h-256z" />
<glyph unicode="&#xee;" d="M128 896v128h128v128h128v128h256v-128h128v-128h128v-128h-256v128h-256v-128h-256zM256 0v128h128v512h-128v128h384v-640h128v-128h-512z" />
<glyph unicode="&#xef;" d="M128 896v256h256v-256h-256zM256 0v128h128v512h-128v128h384v-640h128v-128h-512zM640 896v256h256v-256h-256z" />
<glyph unicode="&#xf0;" d="M128 128v384h128v128h384v128h-128v128h-128v128h-128v128h256v-128h128v-128h128v-128h128v-640h-128v-128h-512v128h-128zM256 768v128h128v-128h-128zM384 128h256v384h-256v-384zM640 1024v128h128v-128h-128z" />
<glyph unicode="&#xf1;" d="M0 640v128h256v-128h128v-640h-256v640h-128zM0 896v128h128v128h384v-128h128v128h256v-128h-128v-128h-384v128h-128v-128h-256zM384 640v128h384v-128h128v-640h-256v640h-256z" />
<glyph unicode="&#xf2;" d="M0 128v512h128v128h640v-128h128v-512h-128v-128h-640v128h-128zM128 1152v128h256v-128h128v-128h128v-128h-256v128h-128v128h-128zM256 128h384v512h-384v-512z" />
<glyph unicode="&#xf3;" d="M0 128v512h128v128h640v-128h128v-512h-128v-128h-640v128h-128zM128 896v128h128v128h128v128h256v-128h-128v-128h-128v-128h-256zM256 128h384v512h-384v-512z" />
<glyph unicode="&#xf4;" d="M0 128v512h128v128h640v-128h128v-512h-128v-128h-640v128h-128zM128 896v128h128v128h128v128h128v-128h128v-128h128v-128h-256v128h-128v-128h-256zM256 128h384v512h-384v-512z" />
<glyph unicode="&#xf5;" d="M0 128v512h128v128h640v-128h128v-512h-128v-128h-640v128h-128zM0 896v128h128v128h384v-128h128v128h256v-128h-128v-128h-384v128h-128v-128h-256zM256 128h384v512h-384v-512z" />
<glyph unicode="&#xf6;" d="M0 128v512h128v128h640v-128h128v-512h-128v-128h-640v128h-128zM0 896v256h256v-256h-256zM256 128h384v512h-384v-512zM640 896v256h256v-256h-256z" />
<glyph unicode="&#xf7;" d="M128 512v128h768v-128h-768zM384 128v256h256v-256h-256zM384 768v256h256v-256h-256z" />
<glyph unicode="&#xf8;" d="M0 128v512h128v128h640v-128h128v-512h-128v-128h-640v128h-128zM256 384h128v128h128v128h-256v-256zM384 128h256v256h-128v-128h-128v-128z" />
<glyph unicode="&#xf9;" d="M0 128v640h256v-640h256v-128h-384v128h-128zM128 1152v128h256v-128h128v-128h128v-128h-256v128h-128v128h-128zM512 128v640h256v-640h128v-128h-256v128h-128z" />
<glyph unicode="&#xfa;" d="M0 128v640h256v-640h256v-128h-384v128h-128zM128 896v128h128v128h128v128h256v-128h-128v-128h-128v-128h-256zM512 128v640h256v-640h128v-128h-256v128h-128z" />
<glyph unicode="&#xfb;" d="M0 128v640h256v-640h256v-128h-384v128h-128zM0 896v128h128v128h128v128h256v-128h128v-128h128v-128h-256v128h-256v-128h-256zM512 128v640h256v-640h128v-128h-256v128h-128z" />
<glyph unicode="&#xfc;" d="M0 128v640h256v-640h256v-128h-384v128h-128zM0 896v256h256v-256h-256zM512 128v640h256v-640h128v-128h-256v128h-128zM512 896v256h256v-256h-256z" />
<glyph unicode="&#xfd;" d="M0 -128h512v128h128v128h-512v128h-128v512h256v-512h384v512h256v-768h-128v-128h-128v-128h-640v128zM256 896v128h128v128h128v128h256v-128h-128v-128h-128v-128h-256z" />
<glyph unicode="&#xfe;" d="M0 -128h128v1152h-128v128h384v-384h384v-128h128v-512h-128v-128h-384v-128h128v-128h-512v128zM384 128h256v512h-256v-512z" />
<glyph unicode="&#xff;" d="M0 256v512h256v-512h384v512h256v-768h-128v-128h-128v-128h-512v128h384v128h128v128h-512v128h-128zM0 896v256h256v-256h-256zM640 896v256h256v-256h-256z" />
<glyph unicode="&#x152;" d="M0 256v640h128v128h128v128h640v-128h-128v-384h128v-128h-128v-384h128v-128h-640v128h-128v128h-128zM256 256h128v-128h128v896h-128v-128h-128v-640z" />
<glyph unicode="&#x153;" d="M0 128v640h128v128h256v-128h-128v-640h128v-128h-256v128h-128zM384 128v640h128v-256h128v256h-128v128h256v-128h128v-384h-256v-256h256v-128h-384v128h-128z" />
<glyph unicode="&#x178;" d="M128 640v384h256v-384h256v384h256v-384h-128v-128h-128v-384h128v-128h-512v128h128v384h-128v128h-128zM128 1152v256h256v-256h-256zM640 1152v256h256v-256h-256z" />
<glyph unicode="&#x2c6;" d="M128 896v128h128v128h128v128h128v-128h128v-128h128v-128h-256v128h-128v-128h-256z" />
<glyph unicode="&#x2dc;" d="M0 1024v128h128v128h384v-128h128v128h256v-128h-128v-128h-384v128h-128v-128h-256z" />
<glyph unicode="&#x2000;" horiz-adv-x="704" />
<glyph unicode="&#x2001;" horiz-adv-x="1408" />
<glyph unicode="&#x2002;" horiz-adv-x="704" />
<glyph unicode="&#x2003;" horiz-adv-x="1408" />
<glyph unicode="&#x2004;" horiz-adv-x="469" />
<glyph unicode="&#x2005;" horiz-adv-x="352" />
<glyph unicode="&#x2006;" horiz-adv-x="234" />
<glyph unicode="&#x2007;" horiz-adv-x="234" />
<glyph unicode="&#x2008;" horiz-adv-x="176" />
<glyph unicode="&#x2009;" horiz-adv-x="281" />
<glyph unicode="&#x200a;" horiz-adv-x="78" />
<glyph unicode="&#x2010;" d="M0 512v128h896v-128h-896z" />
<glyph unicode="&#x2011;" d="M0 512v128h896v-128h-896z" />
<glyph unicode="&#x2012;" d="M0 512v128h896v-128h-896z" />
<glyph unicode="&#x2013;" d="M128 512v128h640v-128h-640z" />
<glyph unicode="&#x2014;" d="M0 512v128h1024v-128h-1024z" />
<glyph unicode="&#x2018;" d="M256 896v256h128v128h256v-128h-128v-256h-256z" />
<glyph unicode="&#x2019;" d="M256 896v128h128v256h256v-256h-128v-128h-256z" />
<glyph unicode="&#x201a;" d="M256 -128h128v256h256v-256h-128v-128h-256v128z" />
<glyph unicode="&#x201c;" d="M0 896v256h128v128h256v-128h-128v-256h-256zM512 896v256h128v128h256v-128h-128v-256h-256z" />
<glyph unicode="&#x201d;" d="M0 896v128h128v256h256v-256h-128v-128h-256zM512 896v128h128v256h256v-256h-128v-128h-256z" />
<glyph unicode="&#x201e;" d="M0 -128h128v256h256v-256h-128v-128h-256v128zM512 -128h128v256h256v-256h-128v-128h-256v128z" />
<glyph unicode="&#x2022;" d="M256 384v256h128v128h256v-128h128v-256h-128v-128h-256v128h-128z" />
<glyph unicode="&#x2026;" d="M0 0v256h256v-256h-256zM384 0v256h256v-256h-256zM768 0v256h256v-256h-256z" />
<glyph unicode="&#x202f;" horiz-adv-x="281" />
<glyph unicode="&#x2039;" d="M256 512v128h128v128h128v128h256v-128h-128v-128h-128v-128h128v-128h128v-128h-256v128h-128v128h-128z" />
<glyph unicode="&#x203a;" d="M256 256v128h128v128h128v128h-128v128h-128v128h256v-128h128v-128h128v-128h-128v-128h-128v-128h-256z" />
<glyph unicode="&#x205f;" horiz-adv-x="352" />
<glyph unicode="&#x20ac;" d="M0 384v128h128v128h-128v128h128v128h128v128h128v128h384v-128h128v-128h-256v128h-128v-128h-128v-128h384v-128h-384v-128h256v-128h-256v-128h128v-128h128v128h256v-128h-128v-128h-384v128h-128v128h-128v128h-128z" />
<glyph unicode="&#x2122;" d="M0 1152v128h512v-128h128v-128h-128v-384h-128v512h-128v-512h-128v512h-128zM640 896v128h128v-128h-128zM768 1024v128h128v128h128v-640h-128v384h-128z" />
<glyph unicode="&#x25fc;" horiz-adv-x="768" d="M0 0v768h768v-768h-768z" />
<glyph unicode="&#xfb01;" d="M0 0v128h128v512h-128v128h128v256h128v128h640v-256h-256v128h-256v-256h512v-640h128v-128h-384v640h-256v-512h128v-128h-512z" />
<glyph unicode="&#xfb02;" d="M0 0v128h128v512h-128v128h128v256h128v128h640v-1024h128v-128h-384v1024h-256v-256h128v-128h-128v-512h128v-128h-512z" />
</font>
</defs>
</svg>
